<?xml version="1.0" encoding="UTF-8" standalone="no"?>
<!-- Created with Inkscape (http://www.inkscape.org/) -->

<svg
   width="210mm"
   height="297mm"
   viewBox="0 0 210 297"
   version="1.1"
   id="svg5"
   sodipodi:docname="tlogo.svg"
   inkscape:version="1.2.2 (732a01da63, 2022-12-09)"
   xmlns:inkscape="http://www.inkscape.org/namespaces/inkscape"
   xmlns:sodipodi="http://sodipodi.sourceforge.net/DTD/sodipodi-0.dtd"
   xmlns="http://www.w3.org/2000/svg"
   xmlns:svg="http://www.w3.org/2000/svg">
  <sodipodi:namedview
     id="namedview7"
     pagecolor="#ffffff"
     bordercolor="#000000"
     borderopacity="0.25"
     inkscape:showpageshadow="2"
     inkscape:pageopacity="0.0"
     inkscape:pagecheckerboard="0"
     inkscape:deskcolor="#d1d1d1"
     inkscape:document-units="mm"
     showgrid="false"
     inkscape:zoom="0.70911897"
     inkscape:cx="137.49456"
     inkscape:cy="561.25984"
     inkscape:window-width="1920"
     inkscape:window-height="991"
     inkscape:window-x="-9"
     inkscape:window-y="-9"
     inkscape:window-maximized="1"
     inkscape:current-layer="g4943" />
  <defs
     id="defs2">
    <inkscape:perspective
       sodipodi:type="inkscape:persp3d"
       inkscape:vp_x="0.54660339 : 80.23628 : 1"
       inkscape:vp_y="0 : 188.01334 : 0"
       inkscape:vp_z="580.98385 : 80.23628 : 1"
       inkscape:persp3d-origin="290.76523 : 70.92962 : 1"
       id="perspective5297" />
    <linearGradient
       id="linearGradient4686"
       inkscape:swatch="solid">
      <stop
         style="stop-color:#2b1100;stop-opacity:1;"
         offset="0"
         id="stop4684" />
    </linearGradient>
    <inkscape:path-effect
       effect="powerstroke"
       id="path-effect1178"
       is_visible="true"
       lpeversion="1"
       offset_points="0.10283344,5.5967335"
       not_jump="true"
       sort_points="true"
       interpolator_type="CentripetalCatmullRom"
       interpolator_beta="0.75"
       start_linecap_type="peak"
       linejoin_type="spiro"
       miter_limit="4"
       scale_width="1"
       end_linecap_type="peak" />
    <inkscape:path-effect
       effect="simplify"
       id="path-effect1176"
       is_visible="true"
       lpeversion="1"
       steps="1"
       threshold="0.6"
       smooth_angles="0"
       helper_size="0"
       simplify_individual_paths="false"
       simplify_just_coalesce="false"
       step="1" />
    <inkscape:path-effect
       effect="powerstroke"
       id="path-effect1171"
       is_visible="true"
       lpeversion="1"
       offset_points="0.16447262,5.5967335"
       not_jump="true"
       sort_points="true"
       interpolator_type="CentripetalCatmullRom"
       interpolator_beta="0.75"
       start_linecap_type="peak"
       linejoin_type="spiro"
       miter_limit="4"
       scale_width="1"
       end_linecap_type="peak" />
    <inkscape:path-effect
       effect="simplify"
       id="path-effect1169"
       is_visible="true"
       lpeversion="1"
       steps="1"
       threshold="0.6"
       smooth_angles="0"
       helper_size="0"
       simplify_individual_paths="false"
       simplify_just_coalesce="false"
       step="1" />
    <inkscape:path-effect
       effect="powerstroke"
       id="path-effect1164"
       is_visible="true"
       lpeversion="1"
       offset_points="0.10175395,5.5967335"
       not_jump="true"
       sort_points="true"
       interpolator_type="CentripetalCatmullRom"
       interpolator_beta="0.75"
       start_linecap_type="peak"
       linejoin_type="spiro"
       miter_limit="4"
       scale_width="1"
       end_linecap_type="peak" />
    <inkscape:path-effect
       effect="simplify"
       id="path-effect1162"
       is_visible="true"
       lpeversion="1"
       steps="1"
       threshold="0.6"
       smooth_angles="0"
       helper_size="0"
       simplify_individual_paths="false"
       simplify_just_coalesce="false"
       step="1" />
    <inkscape:path-effect
       effect="powerstroke"
       id="path-effect1099"
       is_visible="true"
       lpeversion="1"
       offset_points="0.27620785,5.5967335"
       not_jump="true"
       sort_points="true"
       interpolator_type="CentripetalCatmullRom"
       interpolator_beta="0.75"
       start_linecap_type="peak"
       linejoin_type="spiro"
       miter_limit="4"
       scale_width="1"
       end_linecap_type="peak" />
    <inkscape:path-effect
       effect="simplify"
       id="path-effect1097"
       is_visible="true"
       lpeversion="1"
       steps="1"
       threshold="0.6"
       smooth_angles="0"
       helper_size="0"
       simplify_individual_paths="false"
       simplify_just_coalesce="false"
       step="1" />
    <inkscape:path-effect
       effect="powerstroke"
       id="path-effect1092"
       is_visible="true"
       lpeversion="1"
       offset_points="0.36243687,5.5967335"
       not_jump="true"
       sort_points="true"
       interpolator_type="CentripetalCatmullRom"
       interpolator_beta="0.75"
       start_linecap_type="peak"
       linejoin_type="spiro"
       miter_limit="4"
       scale_width="1"
       end_linecap_type="peak" />
    <inkscape:path-effect
       effect="simplify"
       id="path-effect1090"
       is_visible="true"
       lpeversion="1"
       steps="1"
       threshold="0.6"
       smooth_angles="0"
       helper_size="0"
       simplify_individual_paths="false"
       simplify_just_coalesce="false"
       step="1" />
    <rect
       x="373.70316"
       y="321.52574"
       width="177.68528"
       height="296.14213"
       id="rect450" />
    <rect
       x="430.11119"
       y="353.96035"
       width="231.2729"
       height="142.43026"
       id="rect444" />
  </defs>
  <g
     inkscape:label="Layer 1"
     inkscape:groupmode="layer"
     id="layer1">
    <text
       xml:space="preserve"
       transform="scale(0.26458333)"
       id="text442"
       style="fill:#550000;-inkscape-font-specification:'Jokerman, Normal';font-family:Jokerman;font-size:140.28509521px;font-weight:normal;font-style:normal;font-stretch:normal;font-variant:normal;font-variant-ligatures:normal;font-variant-caps:normal;font-variant-numeric:normal;font-variant-east-asian:normal;white-space:pre;shape-inside:url(#rect444)" />
    <text
       xml:space="preserve"
       transform="scale(0.26458333)"
       id="text448"
       style="fill:#550000;-inkscape-font-specification:'Jokerman, Normal';font-family:Jokerman;font-size:140.28509521px;font-weight:normal;font-style:normal;font-stretch:normal;font-variant:normal;font-variant-ligatures:normal;font-variant-caps:normal;font-variant-numeric:normal;font-variant-east-asian:normal;white-space:pre;shape-inside:url(#rect450)" />
    <g
       id="g4943"
       transform="translate(-13.432161,-4.1042714)">
      <path
         style="fill:#550000;stroke-width:0.264583"
         id="path937"
         d="m 121.3318,197.74898 c -0.11888,2.05897 -0.18084,4.11909 -0.3739,6.17288 -0.14259,1.22036 -0.28696,2.46868 -0.64605,3.64805 -0.35793,1.10382 -0.71004,2.20938 -1.02889,3.32522 -0.12252,0.50586 -0.24787,1.00856 -0.32818,1.52278 0,0 3.51275,1.84087 3.51275,1.84087 v 0 c 0.0356,-0.50378 0.15516,-0.98791 0.27499,-1.47846 0.31451,-1.11213 0.67586,-2.21013 1.03346,-3.3089 0.39582,-1.19975 0.50218,-2.49545 0.64765,-3.74413 0.17811,-2.05028 0.23267,-4.10622 0.41159,-6.15638 0,0 -3.50342,-1.82193 -3.50342,-1.82193 z" />
      <g
         id="g960">
        <g
           aria-label="F"
           transform="matrix(3.0919664,0,0,2.4997368,-132.21232,-131.1415)"
           id="text390"
           style="font-size:37.1171px;font-family:Jokerman;-inkscape-font-specification:'Jokerman, Normal';white-space:pre;inline-size:29.1583;fill:#550000;stroke-width:0.264583" />
        <g
           aria-label="i"
           id="text925"
           style="font-size:37.1171px;font-family:Jokerman;-inkscape-font-specification:'Jokerman, Normal';fill:#550000;stroke-width:0.264583" />
        <g
           aria-label="T"
           id="text943"
           style="font-size:37.1171px;font-family:Jokerman;-inkscape-font-specification:'Jokerman, Normal';fill:#550000;stroke-width:0.264583">
          <path
             id="path4778"
             d="m 160.49521,172.53474 -0.39872,2.88165 q -1.19615,-0.21749 -2.37418,-0.32623 -1.17804,-0.10874 -2.3017,-0.10874 -1.43176,0 -2.89977,0.18123 -1.44989,0.18124 -2.93602,0.52559 l 1.72174,26.8229 -8.19186,-1.06929 2.02984,-25.53613 -1.23241,0.0181 q -1.97547,0.0362 -3.47972,-0.18124 -1.48614,-0.21748 -2.46481,-0.70682 -1.35927,-0.6887 -2.02984,-1.90298 -0.65245,-1.21428 -0.65245,-3.00851 v -0.45309 l 1.21428,-0.41684 q 0.0725,2.02984 1.52238,3.04476 1.46801,0.9968 4.27717,0.9968 2.37418,0 7.05007,-0.70682 4.69401,-0.70682 7.0682,-0.70682 1.25052,0 2.28357,0.18123 1.03304,0.16311 1.79423,0.47122 z m -11.96156,11.38161 q 0,-0.65245 -0.32623,-0.97868 -0.3081,-0.32622 -0.96055,-0.32622 -0.65245,0 -0.99679,0.32622 -0.32623,0.32623 -0.32623,0.97868 0,0.67057 0.32623,0.99679 0.34434,0.3081 0.99679,0.3081 0.65245,0 0.96055,-0.3081 0.32623,-0.32622 0.32623,-0.99679 z m 0.3081,5.40082 q 0,-0.67057 -0.48934,-1.15991 -0.47121,-0.50746 -1.15991,-0.50746 -0.68869,0 -1.17803,0.50746 -0.48934,0.48934 -0.48934,1.15991 0,0.70682 0.48934,1.19616 0.48934,0.48934 1.17803,0.48934 0.6887,0 1.15991,-0.48934 0.48934,-0.48934 0.48934,-1.19616 z m -0.39872,5.69081 q 0,-0.63433 -0.32622,-0.96055 -0.30811,-0.32623 -0.96055,-0.32623 -0.65245,0 -0.9968,0.32623 -0.32623,0.32622 -0.32623,0.96055 0,0.65245 0.32623,0.97867 0.34435,0.3081 0.9968,0.3081 0.65244,0 0.96055,-0.3081 0.32622,-0.32622 0.32622,-0.97867 z m -18.83089,3.84535 c 0.2286,1.669 0.57744,3.31967 0.96595,4.95797 0.3894,1.24513 0.80245,2.4855 1.23434,3.71712 0.30095,0.72199 0.15054,0.37092 0.45028,1.05363 0,0 3.58945,1.64389 3.58945,1.64389 v 0 c -0.304,-0.67769 -0.14781,-0.33377 -0.46889,-1.03162 -0.45364,-1.2151 -0.81493,-2.46308 -1.26147,-3.68098 -0.3901,-1.61736 -0.78827,-3.24062 -0.97132,-4.89736 0,0 -3.53834,-1.76265 -3.53834,-1.76265 z m 0.57465,-19.48764 c 1.2082,0.97614 2.41333,1.95858 3.66489,2.87898 0.9935,0.64592 1.99925,1.27623 3.01465,1.88798 1.53939,0.96286 3.12429,1.83989 4.71376,2.7231 1.0088,0.56055 -3.99976,-2.30477 -3.00406,-1.72127 1.37942,0.80837 7.78508,4.4635 0.65393,0.38953 0.51604,0.38431 -0.17335,0.80681 -0.49677,1.05129 -0.90836,0.45043 -1.85393,0.84631 -2.82986,1.1245 -0.9643,0.31304 -1.91261,0.6879 -2.72525,1.30204 -0.11197,0.0833 -0.22395,0.16652 -0.33592,0.24978 0,0 3.34658,2.11777 3.34658,2.11777 v 0 c 0.1104,-0.0827 0.2208,-0.16544 0.33121,-0.24816 0.79754,-0.5619 1.7193,-0.90282 2.6452,-1.1951 1.0049,-0.32159 2.00555,-0.70953 2.92041,-1.23741 0.52567,-0.41498 1.16917,-0.9878 0.83505,-1.71395 -1.22801,-0.72505 -2.4842,-1.40437 -3.68403,-2.17516 -0.98293,-0.63145 4.04971,2.33177 3.03274,1.75676 -12.34664,-6.981 2.97134,1.6837 -1.7115,-1.00604 -1.04037,-0.57929 -2.01868,-1.26437 -3.05046,-1.85873 -1.25454,-0.89622 -2.45174,-1.86845 -3.64972,-2.83831 0,0 -3.67085,-1.4876 -3.67085,-1.4876 z M 121.94,178.08343 c -0.53072,1.20727 -1.34588,2.22859 -2.22291,3.19783 -0.93802,0.67523 -1.76985,1.45785 -2.55602,2.30283 -0.24037,0.30477 -0.40316,0.44295 -0.51285,0.81142 -0.44233,1.48567 2.81112,2.66747 4.08802,2.88824 0.842,0.11658 1.79279,0.11246 2.52931,0.57704 0.0911,0.0556 0.18231,0.11116 0.27346,0.16673 0,0 -3.08801,-2.49413 -3.08801,-2.49413 v 0 c -0.0954,-0.049 -0.19084,-0.098 -0.28627,-0.14702 -0.82774,-0.29706 -1.7172,-0.33188 -2.57218,-0.5212 -1.46434,-0.59491 -0.1186,-0.0675 2.7868,1.74824 0.0676,0.0422 -0.16995,-0.0216 -0.22579,-0.0785 -0.12601,-0.12827 0.0118,-0.41404 0.0656,-0.50328 0.0867,-0.14402 0.20612,-0.26564 0.30918,-0.39845 0.79657,-0.83897 1.6529,-1.59613 2.56198,-2.30988 0.88357,-0.99325 1.68827,-2.04551 2.27211,-3.24794 0,0 -3.42243,-1.99195 -3.42243,-1.99195 z m 9.69242,-3.48549 -0.45309,1.10554 -1.57675,-0.81556 q -0.25373,0.32622 -0.56183,0.52558 -0.3081,0.19936 -0.6887,0.28998 l 0.36247,1.48613 -1.2324,0.18124 -0.3081,-1.55863 q -0.28998,-0.0544 -0.57996,-0.19936 -0.27185,-0.16311 -0.52558,-0.36247 l -1.19616,1.10554 -0.83368,-0.96055 1.39551,-1.01492 q -0.18123,-0.34435 -0.21748,-0.72494 -0.0181,-0.3806 0.0725,-0.81557 l -1.613,-1.01492 0.59807,-0.97867 1.48614,1.01492 q 0.21748,-0.27185 0.48934,-0.45309 0.28997,-0.19936 0.65244,-0.3081 l -0.3081,-2.13858 h 1.15991 l 0.0725,1.99359 q 0.39872,0.0544 0.72494,0.18124 0.32622,0.12686 0.6162,0.32622 l 1.26865,-1.01492 0.83369,0.83369 -1.44989,0.97867 q 0.14499,0.19936 0.19936,0.6162 0.0544,0.41684 0.0362,1.05117 z m -0.6162,22.99883 -7.63003,-0.97867 2.82728,-17.65237 h 3.38911 z m -2.15671,-9.35177 q 0,-0.63432 -0.32622,-0.96055 -0.3081,-0.32622 -0.96055,-0.32622 -0.67058,0 -0.9968,0.32622 -0.32622,0.32623 -0.32622,0.96055 0,0.65245 0.32622,0.97867 0.32622,0.32623 0.9968,0.32623 0.65245,0 0.96055,-0.32623 0.32622,-0.32622 0.32622,-0.97867 z m 0,4.91149 q 0,-0.68869 -0.48934,-1.17803 -0.48933,-0.48934 -1.19615,-0.48934 -0.67057,0 -1.15991,0.48934 -0.48934,0.48934 -0.48934,1.17803 0,0.6887 0.48934,1.17804 0.48934,0.47121 1.15991,0.47121 0.70682,0 1.19615,-0.47121 0.48934,-0.48934 0.48934,-1.17804 z m 3.96963,-19.8443 a 5.4101758,5.4101758 0 0 1 -5.41017,5.41018 5.4101758,5.4101758 0 0 1 -5.41018,-5.41018 5.4101758,5.4101758 0 0 1 5.41018,-5.41017 5.4101758,5.4101758 0 0 1 5.41017,5.41017 z M 92.159546,127.60552 c 0.413412,0 0.746231,0.33282 0.746231,0.74623 v 2.2387 c 0,0.41341 -0.332819,0.74623 -0.746231,0.74623 -0.413412,0 -0.746231,-0.33282 -0.746231,-0.74623 v -2.2387 c 0,-0.41341 0.332819,-0.74623 0.746231,-0.74623 z M 79.846734,159.32034 H 97.75628 c 2.89388,0 5.22362,2.32974 5.22362,5.22362 0,2.89389 -2.32974,5.22362 -5.22362,5.22362 H 79.846734 c -2.893885,0 -5.223618,-2.32973 -5.223618,-5.22362 0,-2.89388 2.329733,-5.22362 5.223618,-5.22362 z m -38.057789,-0.74621 h 23.879397 c 2.687178,0 4.850503,2.16332 4.850503,4.8505 0,2.68718 -2.163325,4.8505 -4.850503,4.8505 H 41.788945 c -2.687179,0 -4.850503,-2.16332 -4.850503,-4.8505 0,-2.68718 2.163324,-4.8505 4.850503,-4.8505 z M 56.34045,141.4108 h 31.714829 c 2.893884,0 5.223617,2.32973 5.223617,5.22361 v 1.11935 c 0,2.89389 -2.329733,5.22362 -5.223617,5.22362 H 56.34045 c -2.893884,0 -5.223617,-2.32973 -5.223617,-5.22362 v -1.11935 c 0,-2.89388 2.329733,-5.22361 5.223617,-5.22361 z M 39.177132,126.8593 h 51.489951 c 2.893885,0 5.223618,2.32973 5.223618,5.22362 0,2.89388 -2.329733,5.22361 -5.223618,5.22361 H 39.177132 c -2.893884,0 -5.223618,-2.32973 -5.223618,-5.22361 0,-2.89389 2.329734,-5.22362 5.223618,-5.22362 z M 148.1267,114.89324 q 0,5.43651 -4.37093,9.06083 -4.37092,3.62434 -13.16881,5.48182 -3.08207,0.63426 -10.19883,1.31381 -7.11676,0.63426 -18.15615,1.22322 l 3.02602,18.93716 26.56178,-3.48844 2.07339,5.4818 -27.51442,3.35252 0.4483,2.1746 26.89801,-1.49504 -0.11209,7.24868 -25.66518,0.72485 5.88394,31.80355 -24.712543,2.67295 v -8.10945 l 8.237515,-1.63095 -0.16811,-4.03208 -8.069402,0.81549 0.112084,-6.16137 7.565065,-0.9967 -0.16811,-4.16798 -7.396952,0.77016 v -5.84423 l 7.284877,-1.08731 -0.280194,-4.03208 -6.836576,0.36244 1.513014,-42.35941 27.458382,-0.31712 q 6.33224,-0.0905 10.70316,-0.49835 4.37093,-0.40776 6.7245,-1.04201 4.65112,-1.26852 6.78054,-3.94146 2.18547,-2.67295 1.84924,-6.65971 l 3.1381,0.45304 q 0.2802,1.0873 0.39226,2.08399 0.16811,0.95139 0.16812,1.90278 z" />
        </g>
      </g>
    </g>
  </g>
</svg>
